<svg xmlns="http://www.w3.org/2000/svg" viewBox="0 0 220 220" role="img" aria-labelledby="title desc">
  <title id="title">Enterprise AI and MLOps Academy Logo</title>
  <desc id="desc">Shield with circuit lines and ascending bar indicating learning growth</desc>
  <defs>
    <linearGradient id="g1" x1="0%" y1="0%" x2="100%" y2="100%">
      <stop offset="0%" stop-color="#0F6FFF"/>
      <stop offset="100%" stop-color="#00B894"/>
    </linearGradient>
    <filter id="shadow" x="-30%" y="-30%" width="160%" height="160%">
      <feDropShadow dx="0" dy="6" stdDeviation="8" flood-color="#0f2f71" flood-opacity="0.25"/>
    </filter>
  </defs>

  <rect x="16" y="16" width="188" height="188" rx="44" fill="#F2F7FF"/>
  <path d="M110 36 L170 62 V112 C170 151 145 180 110 192 C75 180 50 151 50 112 V62 Z" fill="url(#g1)" filter="url(#shadow)"/>

  <path d="M80 114 L98 96 L112 110 L142 80" fill="none" stroke="#ffffff" stroke-width="10" stroke-linecap="round" stroke-linejoin="round"/>

  <circle cx="72" cy="72" r="7" fill="#ffffff" opacity="0.9"/>
  <circle cx="148" cy="66" r="6" fill="#ffffff" opacity="0.85"/>
  <circle cx="156" cy="130" r="6" fill="#ffffff" opacity="0.85"/>
  <circle cx="70" cy="132" r="6" fill="#ffffff" opacity="0.85"/>
  <path d="M78 74 L94 86" stroke="#ffffff" stroke-width="4" stroke-linecap="round" opacity="0.85"/>
  <path d="M142 68 L130 84" stroke="#ffffff" stroke-width="4" stroke-linecap="round" opacity="0.85"/>
  <path d="M151 126 L134 118" stroke="#ffffff" stroke-width="4" stroke-linecap="round" opacity="0.85"/>
  <path d="M76 128 L94 118" stroke="#ffffff" stroke-width="4" stroke-linecap="round" opacity="0.85"/>
</svg>
